<mxfile host="app.diagrams.net" modified="2024-02-25T21:42:26.500Z" agent="Mozilla/5.0 (Windows NT 10.0; Win64; x64) AppleWebKit/537.36 (KHTML, like Gecko) Chrome/122.0.0.0 Safari/537.36" etag="Ued_H-IDRpJeA5oprDIo" version="23.1.6" type="github">
  <diagram name="Page-1" id="vcZxQDZvRY9wKEKGU5FM">
    <mxGraphModel dx="794" dy="454" grid="1" gridSize="10" guides="1" tooltips="1" connect="1" arrows="1" fold="1" page="1" pageScale="1" pageWidth="1169" pageHeight="826" math="0" shadow="0">
      <root>
        <mxCell id="0" />
        <mxCell id="1" parent="0" />
        <mxCell id="uDSiFE8lFCNxqoKjZluO-1" value="debut&lt;br&gt;&lt;br&gt;&lt;div&gt;&lt;br&gt;&lt;/div&gt;" style="ellipse;whiteSpace=wrap;html=1;aspect=fixed;" parent="1" vertex="1">
          <mxGeometry x="40" y="230" width="80" height="80" as="geometry" />
        </mxCell>
        <mxCell id="uDSiFE8lFCNxqoKjZluO-2" value="" style="endArrow=none;html=1;rounded=0;entryX=1;entryY=0.5;entryDx=0;entryDy=0;" parent="1" target="uDSiFE8lFCNxqoKjZluO-1" edge="1">
          <mxGeometry width="50" height="50" relative="1" as="geometry">
            <mxPoint x="40" y="270" as="sourcePoint" />
            <mxPoint x="430" y="210" as="targetPoint" />
            <Array as="points">
              <mxPoint x="40" y="270" />
            </Array>
          </mxGeometry>
        </mxCell>
        <mxCell id="uDSiFE8lFCNxqoKjZluO-11" value="" style="ellipse;whiteSpace=wrap;html=1;aspect=fixed;" parent="1" vertex="1">
          <mxGeometry x="230" y="230" width="80" height="80" as="geometry" />
        </mxCell>
        <mxCell id="uDSiFE8lFCNxqoKjZluO-12" value="" style="endArrow=classic;html=1;rounded=0;entryX=0;entryY=0.5;entryDx=0;entryDy=0;" parent="1" target="uDSiFE8lFCNxqoKjZluO-11" edge="1">
          <mxGeometry width="50" height="50" relative="1" as="geometry">
            <mxPoint x="120" y="270" as="sourcePoint" />
            <mxPoint x="170" y="220" as="targetPoint" />
          </mxGeometry>
        </mxCell>
        <mxCell id="uDSiFE8lFCNxqoKjZluO-20" value="" style="endArrow=none;html=1;rounded=0;" parent="1" edge="1">
          <mxGeometry width="50" height="50" relative="1" as="geometry">
            <mxPoint x="80" y="310" as="sourcePoint" />
            <mxPoint x="80" y="270" as="targetPoint" />
          </mxGeometry>
        </mxCell>
        <mxCell id="uDSiFE8lFCNxqoKjZluO-21" value="" style="endArrow=none;html=1;rounded=0;" parent="1" target="uDSiFE8lFCNxqoKjZluO-11" edge="1">
          <mxGeometry width="50" height="50" relative="1" as="geometry">
            <mxPoint x="270" y="310" as="sourcePoint" />
            <mxPoint x="320" y="260" as="targetPoint" />
            <Array as="points">
              <mxPoint x="270" y="270" />
            </Array>
          </mxGeometry>
        </mxCell>
        <mxCell id="uDSiFE8lFCNxqoKjZluO-22" value="" style="endArrow=none;html=1;rounded=0;entryX=1;entryY=0.5;entryDx=0;entryDy=0;" parent="1" target="uDSiFE8lFCNxqoKjZluO-11" edge="1">
          <mxGeometry width="50" height="50" relative="1" as="geometry">
            <mxPoint x="230" y="270" as="sourcePoint" />
            <mxPoint x="280" y="220" as="targetPoint" />
            <Array as="points" />
          </mxGeometry>
        </mxCell>
        <mxCell id="uDSiFE8lFCNxqoKjZluO-23" value="&lt;font style=&quot;font-size: 14px;&quot;&gt;A : 5&lt;br&gt;&lt;/font&gt;" style="text;html=1;align=center;verticalAlign=middle;resizable=0;points=[];autosize=1;strokeColor=none;fillColor=none;" parent="1" vertex="1">
          <mxGeometry x="140" y="238" width="50" height="30" as="geometry" />
        </mxCell>
        <mxCell id="uDSiFE8lFCNxqoKjZluO-25" value="B : 2" style="text;html=1;align=center;verticalAlign=middle;resizable=0;points=[];autosize=1;strokeColor=none;fillColor=none;" parent="1" vertex="1">
          <mxGeometry x="290" y="170" width="50" height="30" as="geometry" />
        </mxCell>
        <mxCell id="uDSiFE8lFCNxqoKjZluO-30" value="F : 5" style="text;html=1;align=center;verticalAlign=middle;resizable=0;points=[];autosize=1;strokeColor=none;fillColor=none;" parent="1" vertex="1">
          <mxGeometry x="350" y="260" width="50" height="30" as="geometry" />
        </mxCell>
        <mxCell id="uDSiFE8lFCNxqoKjZluO-37" value="" style="ellipse;whiteSpace=wrap;html=1;aspect=fixed;" parent="1" vertex="1">
          <mxGeometry x="360" y="100" width="80" height="80" as="geometry" />
        </mxCell>
        <mxCell id="uDSiFE8lFCNxqoKjZluO-38" value="" style="endArrow=none;html=1;rounded=0;" parent="1" target="uDSiFE8lFCNxqoKjZluO-37" edge="1">
          <mxGeometry width="50" height="50" relative="1" as="geometry">
            <mxPoint x="360" y="140" as="sourcePoint" />
            <mxPoint x="410" y="90" as="targetPoint" />
            <Array as="points">
              <mxPoint x="420" y="140" />
            </Array>
          </mxGeometry>
        </mxCell>
        <mxCell id="uDSiFE8lFCNxqoKjZluO-39" value="" style="endArrow=none;html=1;rounded=0;" parent="1" edge="1">
          <mxGeometry width="50" height="50" relative="1" as="geometry">
            <mxPoint x="399.5" y="180" as="sourcePoint" />
            <mxPoint x="399.5" y="140" as="targetPoint" />
          </mxGeometry>
        </mxCell>
        <mxCell id="uDSiFE8lFCNxqoKjZluO-64" style="edgeStyle=orthogonalEdgeStyle;rounded=0;orthogonalLoop=1;jettySize=auto;html=1;exitX=1;exitY=0.5;exitDx=0;exitDy=0;entryX=0;entryY=0.5;entryDx=0;entryDy=0;" parent="1" source="uDSiFE8lFCNxqoKjZluO-40" target="uDSiFE8lFCNxqoKjZluO-60" edge="1">
          <mxGeometry relative="1" as="geometry" />
        </mxCell>
        <mxCell id="uDSiFE8lFCNxqoKjZluO-40" value="" style="ellipse;whiteSpace=wrap;html=1;aspect=fixed;" parent="1" vertex="1">
          <mxGeometry x="440" y="180" width="80" height="80" as="geometry" />
        </mxCell>
        <mxCell id="uDSiFE8lFCNxqoKjZluO-41" value="" style="ellipse;whiteSpace=wrap;html=1;aspect=fixed;" parent="1" vertex="1">
          <mxGeometry x="460" y="268" width="80" height="80" as="geometry" />
        </mxCell>
        <mxCell id="uDSiFE8lFCNxqoKjZluO-42" value="" style="ellipse;whiteSpace=wrap;html=1;aspect=fixed;fontStyle=1" parent="1" vertex="1">
          <mxGeometry x="390" y="430" width="80" height="80" as="geometry" />
        </mxCell>
        <mxCell id="uDSiFE8lFCNxqoKjZluO-43" value="" style="ellipse;whiteSpace=wrap;html=1;aspect=fixed;" parent="1" vertex="1">
          <mxGeometry x="450" y="360" width="80" height="80" as="geometry" />
        </mxCell>
        <mxCell id="uDSiFE8lFCNxqoKjZluO-44" value="" style="endArrow=none;html=1;rounded=0;entryX=1;entryY=0.5;entryDx=0;entryDy=0;" parent="1" edge="1">
          <mxGeometry width="50" height="50" relative="1" as="geometry">
            <mxPoint x="440" y="219.5" as="sourcePoint" />
            <mxPoint x="520" y="219.5" as="targetPoint" />
            <Array as="points" />
          </mxGeometry>
        </mxCell>
        <mxCell id="uDSiFE8lFCNxqoKjZluO-45" value="" style="endArrow=none;html=1;rounded=0;entryX=1;entryY=0.5;entryDx=0;entryDy=0;" parent="1" edge="1">
          <mxGeometry width="50" height="50" relative="1" as="geometry">
            <mxPoint x="460" y="307.5" as="sourcePoint" />
            <mxPoint x="540" y="307.5" as="targetPoint" />
            <Array as="points" />
          </mxGeometry>
        </mxCell>
        <mxCell id="uDSiFE8lFCNxqoKjZluO-46" value="" style="endArrow=none;html=1;rounded=0;entryX=1;entryY=0.5;entryDx=0;entryDy=0;" parent="1" edge="1">
          <mxGeometry width="50" height="50" relative="1" as="geometry">
            <mxPoint x="450" y="399.5" as="sourcePoint" />
            <mxPoint x="530" y="399.5" as="targetPoint" />
            <Array as="points" />
          </mxGeometry>
        </mxCell>
        <mxCell id="uDSiFE8lFCNxqoKjZluO-47" value="" style="endArrow=none;html=1;rounded=0;entryX=1;entryY=0.5;entryDx=0;entryDy=0;" parent="1" edge="1">
          <mxGeometry width="50" height="50" relative="1" as="geometry">
            <mxPoint x="390" y="469.5" as="sourcePoint" />
            <mxPoint x="470" y="469.5" as="targetPoint" />
            <Array as="points" />
          </mxGeometry>
        </mxCell>
        <mxCell id="uDSiFE8lFCNxqoKjZluO-48" value="" style="endArrow=none;html=1;rounded=0;" parent="1" edge="1">
          <mxGeometry width="50" height="50" relative="1" as="geometry">
            <mxPoint x="479.5" y="260" as="sourcePoint" />
            <mxPoint x="479.5" y="220" as="targetPoint" />
            <Array as="points">
              <mxPoint x="479.5" y="220" />
            </Array>
          </mxGeometry>
        </mxCell>
        <mxCell id="uDSiFE8lFCNxqoKjZluO-49" value="" style="endArrow=none;html=1;rounded=0;" parent="1" edge="1">
          <mxGeometry width="50" height="50" relative="1" as="geometry">
            <mxPoint x="499.5" y="348" as="sourcePoint" />
            <mxPoint x="499.5" y="308" as="targetPoint" />
            <Array as="points">
              <mxPoint x="499.5" y="308" />
            </Array>
          </mxGeometry>
        </mxCell>
        <mxCell id="uDSiFE8lFCNxqoKjZluO-51" value="" style="endArrow=none;html=1;rounded=0;" parent="1" edge="1">
          <mxGeometry width="50" height="50" relative="1" as="geometry">
            <mxPoint x="489.5" y="440" as="sourcePoint" />
            <mxPoint x="489.5" y="400" as="targetPoint" />
            <Array as="points">
              <mxPoint x="489.5" y="400" />
            </Array>
          </mxGeometry>
        </mxCell>
        <mxCell id="uDSiFE8lFCNxqoKjZluO-52" value="" style="endArrow=none;html=1;rounded=0;" parent="1" edge="1">
          <mxGeometry width="50" height="50" relative="1" as="geometry">
            <mxPoint x="429.5" y="510" as="sourcePoint" />
            <mxPoint x="429.5" y="470" as="targetPoint" />
            <Array as="points">
              <mxPoint x="429.5" y="470" />
            </Array>
          </mxGeometry>
        </mxCell>
        <mxCell id="uDSiFE8lFCNxqoKjZluO-57" value="" style="endArrow=none;html=1;rounded=0;" parent="1" edge="1">
          <mxGeometry width="50" height="50" relative="1" as="geometry">
            <mxPoint x="579.5" y="160" as="sourcePoint" />
            <mxPoint x="579.5" y="120" as="targetPoint" />
          </mxGeometry>
        </mxCell>
        <mxCell id="uDSiFE8lFCNxqoKjZluO-60" value="" style="ellipse;whiteSpace=wrap;html=1;aspect=fixed;" parent="1" vertex="1">
          <mxGeometry x="585" y="180" width="80" height="80" as="geometry" />
        </mxCell>
        <mxCell id="uDSiFE8lFCNxqoKjZluO-61" value="" style="endArrow=none;html=1;rounded=0;entryX=1;entryY=0.5;entryDx=0;entryDy=0;" parent="1" edge="1">
          <mxGeometry width="50" height="50" relative="1" as="geometry">
            <mxPoint x="585" y="219.5" as="sourcePoint" />
            <mxPoint x="665" y="219.5" as="targetPoint" />
            <Array as="points" />
          </mxGeometry>
        </mxCell>
        <mxCell id="uDSiFE8lFCNxqoKjZluO-62" value="" style="endArrow=none;html=1;rounded=0;" parent="1" edge="1">
          <mxGeometry width="50" height="50" relative="1" as="geometry">
            <mxPoint x="624.5" y="260" as="sourcePoint" />
            <mxPoint x="624.5" y="220" as="targetPoint" />
            <Array as="points">
              <mxPoint x="624.5" y="220" />
            </Array>
          </mxGeometry>
        </mxCell>
        <mxCell id="uDSiFE8lFCNxqoKjZluO-72" value="" style="endArrow=classic;html=1;rounded=0;" parent="1" edge="1">
          <mxGeometry width="50" height="50" relative="1" as="geometry">
            <mxPoint x="300" y="245" as="sourcePoint" />
            <mxPoint x="440" y="220" as="targetPoint" />
          </mxGeometry>
        </mxCell>
        <mxCell id="uDSiFE8lFCNxqoKjZluO-75" value="C : 3" style="text;html=1;align=center;verticalAlign=middle;resizable=0;points=[];autosize=1;strokeColor=none;fillColor=none;" parent="1" vertex="1">
          <mxGeometry x="335" y="208" width="50" height="30" as="geometry" />
        </mxCell>
        <mxCell id="uDSiFE8lFCNxqoKjZluO-76" value="" style="endArrow=classic;html=1;rounded=0;entryX=0.008;entryY=0.725;entryDx=0;entryDy=0;entryPerimeter=0;" parent="1" target="uDSiFE8lFCNxqoKjZluO-37" edge="1">
          <mxGeometry width="50" height="50" relative="1" as="geometry">
            <mxPoint x="285" y="230" as="sourcePoint" />
            <mxPoint x="335" y="180" as="targetPoint" />
          </mxGeometry>
        </mxCell>
        <mxCell id="uDSiFE8lFCNxqoKjZluO-77" value="" style="endArrow=classic;html=1;rounded=0;entryX=-0.008;entryY=0.333;entryDx=0;entryDy=0;entryPerimeter=0;" parent="1" target="uDSiFE8lFCNxqoKjZluO-41" edge="1">
          <mxGeometry width="50" height="50" relative="1" as="geometry">
            <mxPoint x="310" y="285" as="sourcePoint" />
            <mxPoint x="450" y="260" as="targetPoint" />
          </mxGeometry>
        </mxCell>
        <mxCell id="uDSiFE8lFCNxqoKjZluO-78" value="" style="endArrow=classic;html=1;rounded=0;entryX=-0.058;entryY=0.242;entryDx=0;entryDy=0;entryPerimeter=0;" parent="1" target="uDSiFE8lFCNxqoKjZluO-43" edge="1">
          <mxGeometry width="50" height="50" relative="1" as="geometry">
            <mxPoint x="290" y="310" as="sourcePoint" />
            <mxPoint x="430" y="285" as="targetPoint" />
          </mxGeometry>
        </mxCell>
        <mxCell id="uDSiFE8lFCNxqoKjZluO-79" value="G : 10" style="text;html=1;align=center;verticalAlign=middle;resizable=0;points=[];autosize=1;strokeColor=none;fillColor=none;" parent="1" vertex="1">
          <mxGeometry x="330" y="318" width="60" height="30" as="geometry" />
        </mxCell>
        <mxCell id="uDSiFE8lFCNxqoKjZluO-80" value="" style="endArrow=classic;html=1;rounded=0;" parent="1" target="uDSiFE8lFCNxqoKjZluO-42" edge="1">
          <mxGeometry width="50" height="50" relative="1" as="geometry">
            <mxPoint x="260" y="315" as="sourcePoint" />
            <mxPoint x="400" y="290" as="targetPoint" />
          </mxGeometry>
        </mxCell>
        <mxCell id="uDSiFE8lFCNxqoKjZluO-81" value="K : 3" style="text;html=1;align=center;verticalAlign=middle;resizable=0;points=[];autosize=1;strokeColor=none;fillColor=none;" parent="1" vertex="1">
          <mxGeometry x="315" y="358" width="50" height="30" as="geometry" />
        </mxCell>
        <mxCell id="uDSiFE8lFCNxqoKjZluO-82" value="" style="endArrow=classic;html=1;rounded=0;" parent="1" edge="1">
          <mxGeometry width="50" height="50" relative="1" as="geometry">
            <mxPoint x="440" y="130" as="sourcePoint" />
            <mxPoint x="550" y="130" as="targetPoint" />
          </mxGeometry>
        </mxCell>
        <mxCell id="uDSiFE8lFCNxqoKjZluO-83" value="D : 2" style="edgeLabel;html=1;align=center;verticalAlign=middle;resizable=0;points=[];" parent="uDSiFE8lFCNxqoKjZluO-82" vertex="1" connectable="0">
          <mxGeometry x="-0.169" y="9" relative="1" as="geometry">
            <mxPoint as="offset" />
          </mxGeometry>
        </mxCell>
        <mxCell id="uDSiFE8lFCNxqoKjZluO-84" value="H : 7" style="text;html=1;align=center;verticalAlign=middle;resizable=0;points=[];autosize=1;strokeColor=none;fillColor=none;" parent="1" vertex="1">
          <mxGeometry x="515" y="198" width="50" height="30" as="geometry" />
        </mxCell>
        <mxCell id="uDSiFE8lFCNxqoKjZluO-85" value="" style="ellipse;whiteSpace=wrap;html=1;aspect=fixed;" parent="1" vertex="1">
          <mxGeometry x="550" y="90" width="80" height="80" as="geometry" />
        </mxCell>
        <mxCell id="uDSiFE8lFCNxqoKjZluO-86" value="" style="endArrow=none;html=1;rounded=0;" parent="1" target="uDSiFE8lFCNxqoKjZluO-85" edge="1">
          <mxGeometry width="50" height="50" relative="1" as="geometry">
            <mxPoint x="550" y="130" as="sourcePoint" />
            <mxPoint x="600" y="80" as="targetPoint" />
            <Array as="points">
              <mxPoint x="610" y="130" />
            </Array>
          </mxGeometry>
        </mxCell>
        <mxCell id="uDSiFE8lFCNxqoKjZluO-87" value="" style="endArrow=none;html=1;rounded=0;" parent="1" edge="1">
          <mxGeometry width="50" height="50" relative="1" as="geometry">
            <mxPoint x="589.5" y="170" as="sourcePoint" />
            <mxPoint x="589.5" y="130" as="targetPoint" />
          </mxGeometry>
        </mxCell>
        <mxCell id="uDSiFE8lFCNxqoKjZluO-92" value="" style="endArrow=classic;html=1;rounded=0;entryX=0.046;entryY=0.894;entryDx=0;entryDy=0;entryPerimeter=0;" parent="1" target="uDSiFE8lFCNxqoKjZluO-117" edge="1">
          <mxGeometry width="50" height="50" relative="1" as="geometry">
            <mxPoint x="530" y="388" as="sourcePoint" />
            <mxPoint x="710" y="378" as="targetPoint" />
          </mxGeometry>
        </mxCell>
        <mxCell id="uDSiFE8lFCNxqoKjZluO-93" value="L : 4" style="text;html=1;align=center;verticalAlign=middle;resizable=0;points=[];autosize=1;strokeColor=none;fillColor=none;" parent="1" vertex="1">
          <mxGeometry x="640" y="280" width="50" height="30" as="geometry" />
        </mxCell>
        <mxCell id="uDSiFE8lFCNxqoKjZluO-94" value="" style="ellipse;whiteSpace=wrap;html=1;aspect=fixed;fontStyle=1" parent="1" vertex="1">
          <mxGeometry x="680" y="430" width="80" height="80" as="geometry" />
        </mxCell>
        <mxCell id="uDSiFE8lFCNxqoKjZluO-95" value="" style="endArrow=none;html=1;rounded=0;entryX=1;entryY=0.5;entryDx=0;entryDy=0;" parent="1" edge="1">
          <mxGeometry width="50" height="50" relative="1" as="geometry">
            <mxPoint x="680" y="469.5" as="sourcePoint" />
            <mxPoint x="760" y="469.5" as="targetPoint" />
            <Array as="points" />
          </mxGeometry>
        </mxCell>
        <mxCell id="uDSiFE8lFCNxqoKjZluO-96" value="" style="endArrow=none;html=1;rounded=0;" parent="1" edge="1">
          <mxGeometry width="50" height="50" relative="1" as="geometry">
            <mxPoint x="719.5" y="510" as="sourcePoint" />
            <mxPoint x="719.5" y="470" as="targetPoint" />
            <Array as="points">
              <mxPoint x="719.5" y="470" />
            </Array>
          </mxGeometry>
        </mxCell>
        <mxCell id="uDSiFE8lFCNxqoKjZluO-100" value="" style="endArrow=classic;html=1;rounded=0;" parent="1" edge="1">
          <mxGeometry width="50" height="50" relative="1" as="geometry">
            <mxPoint x="470" y="470" as="sourcePoint" />
            <mxPoint x="680" y="470" as="targetPoint" />
          </mxGeometry>
        </mxCell>
        <mxCell id="uDSiFE8lFCNxqoKjZluO-101" value="E : 1" style="text;html=1;align=center;verticalAlign=middle;resizable=0;points=[];autosize=1;strokeColor=none;fillColor=none;" parent="1" vertex="1">
          <mxGeometry x="525" y="448" width="50" height="30" as="geometry" />
        </mxCell>
        <mxCell id="uDSiFE8lFCNxqoKjZluO-102" value="" style="ellipse;whiteSpace=wrap;html=1;aspect=fixed;fontStyle=1" parent="1" vertex="1">
          <mxGeometry x="820" y="430" width="80" height="80" as="geometry" />
        </mxCell>
        <mxCell id="uDSiFE8lFCNxqoKjZluO-103" value="" style="endArrow=none;html=1;rounded=0;entryX=1;entryY=0.5;entryDx=0;entryDy=0;" parent="1" edge="1">
          <mxGeometry width="50" height="50" relative="1" as="geometry">
            <mxPoint x="820" y="469.5" as="sourcePoint" />
            <mxPoint x="900" y="469.5" as="targetPoint" />
            <Array as="points" />
          </mxGeometry>
        </mxCell>
        <mxCell id="uDSiFE8lFCNxqoKjZluO-104" value="" style="endArrow=none;html=1;rounded=0;" parent="1" edge="1">
          <mxGeometry width="50" height="50" relative="1" as="geometry">
            <mxPoint x="859.5" y="510" as="sourcePoint" />
            <mxPoint x="859.5" y="470" as="targetPoint" />
            <Array as="points">
              <mxPoint x="859.5" y="470" />
            </Array>
          </mxGeometry>
        </mxCell>
        <mxCell id="uDSiFE8lFCNxqoKjZluO-105" value="" style="endArrow=classic;html=1;rounded=0;" parent="1" edge="1">
          <mxGeometry width="50" height="50" relative="1" as="geometry">
            <mxPoint x="760" y="468" as="sourcePoint" />
            <mxPoint x="820" y="468" as="targetPoint" />
          </mxGeometry>
        </mxCell>
        <mxCell id="uDSiFE8lFCNxqoKjZluO-106" value="I : 2" style="edgeLabel;html=1;align=center;verticalAlign=middle;resizable=0;points=[];" parent="uDSiFE8lFCNxqoKjZluO-105" vertex="1" connectable="0">
          <mxGeometry x="-0.0861" y="12" relative="1" as="geometry">
            <mxPoint as="offset" />
          </mxGeometry>
        </mxCell>
        <mxCell id="uDSiFE8lFCNxqoKjZluO-107" value="" style="ellipse;whiteSpace=wrap;html=1;aspect=fixed;fontStyle=1" parent="1" vertex="1">
          <mxGeometry x="930" y="430" width="80" height="80" as="geometry" />
        </mxCell>
        <mxCell id="uDSiFE8lFCNxqoKjZluO-108" value="" style="endArrow=none;html=1;rounded=0;entryX=1;entryY=0.5;entryDx=0;entryDy=0;" parent="1" edge="1">
          <mxGeometry width="50" height="50" relative="1" as="geometry">
            <mxPoint x="930" y="469.5" as="sourcePoint" />
            <mxPoint x="1010" y="469.5" as="targetPoint" />
            <Array as="points" />
          </mxGeometry>
        </mxCell>
        <mxCell id="uDSiFE8lFCNxqoKjZluO-109" value="" style="endArrow=none;html=1;rounded=0;" parent="1" edge="1">
          <mxGeometry width="50" height="50" relative="1" as="geometry">
            <mxPoint x="969.5" y="510" as="sourcePoint" />
            <mxPoint x="969.5" y="470" as="targetPoint" />
            <Array as="points">
              <mxPoint x="969.5" y="470" />
            </Array>
          </mxGeometry>
        </mxCell>
        <mxCell id="uDSiFE8lFCNxqoKjZluO-110" value="" style="endArrow=classic;html=1;rounded=0;entryX=0;entryY=0.5;entryDx=0;entryDy=0;" parent="1" target="uDSiFE8lFCNxqoKjZluO-107" edge="1">
          <mxGeometry width="50" height="50" relative="1" as="geometry">
            <mxPoint x="900" y="478" as="sourcePoint" />
            <mxPoint x="950" y="428" as="targetPoint" />
          </mxGeometry>
        </mxCell>
        <mxCell id="uDSiFE8lFCNxqoKjZluO-111" value="J : 2" style="edgeLabel;html=1;align=center;verticalAlign=middle;resizable=0;points=[];" parent="uDSiFE8lFCNxqoKjZluO-110" vertex="1" connectable="0">
          <mxGeometry x="0.13" y="13" relative="1" as="geometry">
            <mxPoint as="offset" />
          </mxGeometry>
        </mxCell>
        <mxCell id="uDSiFE8lFCNxqoKjZluO-117" value="" style="ellipse;whiteSpace=wrap;html=1;aspect=fixed;fontStyle=1" parent="1" vertex="1">
          <mxGeometry x="865" y="158" width="80" height="80" as="geometry" />
        </mxCell>
        <mxCell id="uDSiFE8lFCNxqoKjZluO-118" value="" style="endArrow=none;html=1;rounded=0;entryX=1;entryY=0.5;entryDx=0;entryDy=0;" parent="1" edge="1">
          <mxGeometry width="50" height="50" relative="1" as="geometry">
            <mxPoint x="865" y="197.5" as="sourcePoint" />
            <mxPoint x="945" y="197.5" as="targetPoint" />
            <Array as="points" />
          </mxGeometry>
        </mxCell>
        <mxCell id="uDSiFE8lFCNxqoKjZluO-119" value="" style="endArrow=none;html=1;rounded=0;" parent="1" edge="1">
          <mxGeometry width="50" height="50" relative="1" as="geometry">
            <mxPoint x="904.5" y="238" as="sourcePoint" />
            <mxPoint x="904.5" y="198" as="targetPoint" />
            <Array as="points">
              <mxPoint x="904.5" y="198" />
            </Array>
          </mxGeometry>
        </mxCell>
        <mxCell id="uDSiFE8lFCNxqoKjZluO-121" value="" style="endArrow=classic;html=1;rounded=0;entryX=1;entryY=1;entryDx=0;entryDy=0;exitX=0.39;exitY=0.004;exitDx=0;exitDy=0;exitPerimeter=0;" parent="1" source="uDSiFE8lFCNxqoKjZluO-107" target="uDSiFE8lFCNxqoKjZluO-117" edge="1">
          <mxGeometry width="50" height="50" relative="1" as="geometry">
            <mxPoint x="995" y="288" as="sourcePoint" />
            <mxPoint x="1045" y="238" as="targetPoint" />
          </mxGeometry>
        </mxCell>
        <mxCell id="uDSiFE8lFCNxqoKjZluO-123" value="M : 2" style="text;html=1;align=center;verticalAlign=middle;resizable=0;points=[];autosize=1;strokeColor=none;fillColor=none;" parent="1" vertex="1">
          <mxGeometry x="945" y="318" width="50" height="30" as="geometry" />
        </mxCell>
        <mxCell id="uDSiFE8lFCNxqoKjZluO-124" value="" style="endArrow=classic;html=1;rounded=0;" parent="1" edge="1">
          <mxGeometry width="50" height="50" relative="1" as="geometry">
            <mxPoint x="930" y="165" as="sourcePoint" />
            <mxPoint x="980" y="115" as="targetPoint" />
          </mxGeometry>
        </mxCell>
        <mxCell id="uDSiFE8lFCNxqoKjZluO-125" value="N : 2" style="text;html=1;align=center;verticalAlign=middle;resizable=0;points=[];autosize=1;strokeColor=none;fillColor=none;" parent="1" vertex="1">
          <mxGeometry x="915" y="118" width="50" height="30" as="geometry" />
        </mxCell>
        <mxCell id="uDSiFE8lFCNxqoKjZluO-126" value="" style="ellipse;whiteSpace=wrap;html=1;aspect=fixed;fontStyle=1" parent="1" vertex="1">
          <mxGeometry x="680" y="330" width="80" height="80" as="geometry" />
        </mxCell>
        <mxCell id="uDSiFE8lFCNxqoKjZluO-127" value="" style="endArrow=none;html=1;rounded=0;entryX=1;entryY=0.5;entryDx=0;entryDy=0;" parent="1" edge="1">
          <mxGeometry width="50" height="50" relative="1" as="geometry">
            <mxPoint x="680" y="369.5" as="sourcePoint" />
            <mxPoint x="760" y="369.5" as="targetPoint" />
            <Array as="points" />
          </mxGeometry>
        </mxCell>
        <mxCell id="uDSiFE8lFCNxqoKjZluO-128" value="" style="endArrow=none;html=1;rounded=0;" parent="1" edge="1">
          <mxGeometry width="50" height="50" relative="1" as="geometry">
            <mxPoint x="719.5" y="410" as="sourcePoint" />
            <mxPoint x="719.5" y="370" as="targetPoint" />
            <Array as="points">
              <mxPoint x="719.5" y="370" />
            </Array>
          </mxGeometry>
        </mxCell>
        <mxCell id="uDSiFE8lFCNxqoKjZluO-129" value="" style="endArrow=classic;html=1;rounded=0;" parent="1" edge="1">
          <mxGeometry width="50" height="50" relative="1" as="geometry">
            <mxPoint x="530" y="413" as="sourcePoint" />
            <mxPoint x="680" y="380" as="targetPoint" />
          </mxGeometry>
        </mxCell>
        <mxCell id="uDSiFE8lFCNxqoKjZluO-130" value="&amp;nbsp;O : 3" style="text;html=1;align=center;verticalAlign=middle;resizable=0;points=[];autosize=1;strokeColor=none;fillColor=none;" parent="1" vertex="1">
          <mxGeometry x="565" y="378" width="50" height="30" as="geometry" />
        </mxCell>
      </root>
    </mxGraphModel>
  </diagram>
</mxfile>
